<svg width="156" height="154" viewBox="0 0 156 154" fill="none" xmlns="http://www.w3.org/2000/svg">
<path fill-rule="evenodd" clip-rule="evenodd" d="M68.7407 153.9C116.841 153.9 132.505 144.039 132.505 112.131C132.505 80.2235 116.841 69.5814 68.7407 69.5814C20.641 69.5814 0 80.2235 0 112.131C0 144.039 20.641 153.9 68.7407 153.9ZM68.4297 91.8322C96.4306 91.8322 119.13 88.3367 119.13 84.0249C119.13 79.713 96.4306 76.2176 68.4297 76.2176C40.4287 76.2176 17.7295 79.713 17.7295 84.0249C17.7295 88.3367 40.4287 91.8322 68.4297 91.8322Z" fill="#42291B"/>
<path d="M35.9971 4C35.9971 4 25.7326 13.7591 27.5989 23.9086C29.4651 34.0581 40.9738 30.5448 40.9738 43.8172C40.9738 57.0897 27.5989 61.3837 27.5989 61.3837" stroke="black" stroke-width="9"/>
<path d="M96.3393 4C96.3393 4 86.0749 13.7591 87.9412 23.9086C89.8074 34.0581 101.316 30.5448 101.316 43.8172C101.316 57.0897 87.9412 61.3837 87.9412 61.3837" stroke="black" stroke-width="9"/>
<path d="M69.7647 19.6146C69.7647 19.6146 62.2534 26.7846 63.6191 34.2414C64.9848 41.6981 73.4065 39.1169 73.4065 48.8681C73.4065 58.6193 63.6191 61.7741 63.6191 61.7741" stroke="black" stroke-width="9"/>
<ellipse rx="20.8631" ry="35.6269" transform="matrix(0.538295 0.849305 -0.703464 0.702257 75.5858 108.451)" fill="black"/>
<line y1="-5.5" x2="39.3767" y2="-5.5" transform="matrix(0.665237 -0.738659 0.579482 0.821998 97.2319 88.3625)" stroke="black" stroke-width="11"/>
<path d="M117.581 59.6335L149.657 23.1756" stroke="black" stroke-width="20"/>
</svg>
