<svg width="156" height="152" viewBox="0 0 156 152" fill="none" xmlns="http://www.w3.org/2000/svg">
<path d="M99.6102 93.0714V57.7143H131.644L153 93.0714V131.643H141.305M99.6102 93.0714H83.8475M99.6102 93.0714V103.786M104.186 131.643H50.7966M11.6441 93.0714H3V103.786M11.6441 93.0714L7.0678 83.9643C7.0678 83.9643 4.22921 36.1138 44.1864 33.2054M11.6441 93.0714H83.8475M83.8475 93.0714L88.4237 83.9643C88.4237 83.9643 93.1541 37.1165 53.339 33.3121M3 83.9643H93.5085M24.3559 2C24.3559 2 21.8136 10.5714 22.322 13.25C22.8305 15.9286 27.4068 14.8571 27.4068 18.6071C27.4068 22.3571 24.3559 27.1786 24.3559 27.1786M48.7627 2C48.7627 2 45.7119 5.21429 45.7119 8.42857C45.7119 11.6429 48.7627 14.3214 48.7627 14.3214M73.678 2C73.678 2 69.6102 7.35714 69.6102 9.5C69.6102 11.6429 76.7288 15.3929 76.2203 18.6071C75.7119 21.8214 71.6441 26.6429 71.6441 26.6429M117.915 66.2857H128.085L139.78 86.6429H117.915M117.915 66.2857H107.746V86.6429H117.915M117.915 66.2857V86.6429M106.22 101.107H113.847M99.6102 110.75V103.786M99.6102 103.786H3M3 103.786V131.643H15.7119M48.7627 43.25C70.6019 46.6147 76.6197 54.3808 79.2712 75.9286M44.1864 33.2054C45.6534 33.0987 47.1781 33.0525 48.7627 33.0714C50.35 33.0904 51.8746 33.1721 53.339 33.3121M44.1864 33.2054C44.1864 33.2054 39.1017 21.8214 48.7627 21.8214C58.4237 21.8214 53.339 33.3121 53.339 33.3121" stroke="black" stroke-width="5"/>
<path d="M49.8136 132.179C49.8136 142.121 42.1889 150 33.0001 150C23.8113 150 16.1865 142.121 16.1865 132.179C16.1865 122.236 23.8113 114.357 33.0001 114.357C42.1889 114.357 49.8136 122.236 49.8136 132.179Z" stroke="black" stroke-width="4"/>
<path d="M41.678 132.179C41.678 137.387 37.6956 141.429 33 141.429C28.3043 141.429 24.322 137.387 24.322 132.179C24.322 126.97 28.3043 122.929 33 122.929C37.6956 122.929 41.678 126.97 41.678 132.179Z" stroke="black" stroke-width="4"/>
<path d="M131.169 132.179C131.169 137.387 127.187 141.429 122.491 141.429C117.796 141.429 113.813 137.387 113.813 132.179C113.813 126.97 117.796 122.929 122.491 122.929C127.187 122.929 131.169 126.97 131.169 132.179Z" stroke="black" stroke-width="4"/>
<path d="M139.305 132.179C139.305 142.121 131.68 150 122.492 150C113.303 150 105.678 142.121 105.678 132.179C105.678 122.236 113.303 114.357 122.492 114.357C131.68 114.357 139.305 122.236 139.305 132.179Z" stroke="black" stroke-width="4"/>
</svg>
