<svg width="154" height="150" viewBox="0 0 154 150" fill="none" xmlns="http://www.w3.org/2000/svg">
<circle cx="75" cy="75" r="73" stroke="black" stroke-width="4"/>
<path d="M123.5 74.5C123.5 100.987 101.809 122.5 75 122.5C48.1909 122.5 26.5 100.987 26.5 74.5C26.5 48.0135 48.1909 26.5 75 26.5C101.809 26.5 123.5 48.0135 123.5 74.5Z" stroke="black" stroke-width="5"/>
<path d="M64.446 52L50.9052 69.9693L52.283 79.7725L23.7024 115.208C23.7024 115.208 20.3924 119.6 24.7849 122.91C29.1774 126.22 33.286 122.429 33.286 122.429L59.87 85.4897L68.4752 83.2092L82.016 65.2399" stroke="black" stroke-width="5"/>
<path d="M70.4998 57L58.9998 71.5" stroke="black" stroke-width="3"/>
<path d="M74.9998 61L63.4998 75.5" stroke="black" stroke-width="3"/>
<path d="M140.018 35.4467L115.928 69.8511C115.928 69.8511 119.112 78.1846 117.965 79.8228C116.817 81.4611 105.52 94.3037 105.52 94.3037C105.52 94.3037 101.341 101.144 92.3303 94.8344C83.3196 88.5251 87.9082 81.9718 87.9082 81.9718C87.9082 81.9718 96.3393 67.1222 97.4864 65.4839C98.6336 63.8456 107.327 63.8286 107.327 63.8286L131.417 29.4242C131.417 29.4242 135.432 23.6901 139.65 27.2544C143.869 30.8186 140.018 35.4467 140.018 35.4467Z" stroke="black" stroke-width="5"/>
</svg>
